<svg xmlns="http://www.w3.org/2000/svg" xmlns:xlink="http://www.w3.org/1999/xlink" viewBox="0 0 628.49 148.51"><defs><style>.cls-1{isolation:isolate;}.cls-2{fill:url(#linear-gradient);}.cls-3{fill:#c6744f;}.cls-4{fill:#9e5a3f;}.cls-5{fill:#3f3431;}.cls-6{fill:url(#linear-gradient-2);}.cls-10,.cls-7,.cls-8{fill:#fff;}.cls-12,.cls-8{opacity:0.2;}.cls-9{opacity:0.9;}.cls-10,.cls-11{opacity:0.3;}.cls-10,.cls-11,.cls-12{mix-blend-mode:soft-light;}.cls-13{fill:#2d2d2d;}</style><linearGradient id="linear-gradient" x1="5.78" y1="119.9" x2="141.03" y2="29.74" gradientUnits="userSpaceOnUse"><stop offset="0" stop-color="#269cff"/><stop offset="1" stop-color="#ac19ff"/></linearGradient><linearGradient id="linear-gradient-2" x1="45.41" y1="78.69" x2="103.09" y2="78.69" gradientUnits="userSpaceOnUse"><stop offset="0.59" stop-color="#e6a07b"/><stop offset="1" stop-color="#bf8464"/></linearGradient></defs><title>Asset 2</title><g class="cls-1"><g id="Layer_2" data-name="Layer 2"><g id="Layer_1-2" data-name="Layer 1"><circle class="cls-2" cx="74.25" cy="74.25" r="74.25"/><rect class="cls-3" x="40.62" y="74.89" width="67.26" height="12.38" rx="6.19" ry="6.19"/><rect class="cls-4" x="70.41" y="49.8" width="7.7" height="62.57" rx="3.85" ry="3.85" transform="translate(155.34 6.83) rotate(90)"/><path class="cls-5" d="M63.71,67.53a12,12,0,1,1-12-12.05A12,12,0,0,1,63.71,67.53Z"/><circle class="cls-5" cx="96.84" cy="67.53" r="12.05"/><path class="cls-6" d="M103.09,60.82V96.57A25.5,25.5,0,0,1,80.44,121.9a26.64,26.64,0,0,1-2.85.15H70.9c-.85,0-1.7,0-2.52-.12a25.44,25.44,0,0,1-15.5-7.34,25.38,25.38,0,0,1-7.47-18V60.82q0-.89.06-1.77A25.51,25.51,0,0,1,70.9,35.33h6.69a25.5,25.5,0,0,1,25.5,25.49Z"/><path class="cls-7" d="M88.52,94H60a1,1,0,0,0-.92,1.24,17.69,17.69,0,0,0,3.76,7c2.31,2.52,5.89,4.61,11.43,4.4,6.06-.23,9.66-2.31,11.84-4.72a15.39,15.39,0,0,0,3.38-6.67A1,1,0,0,0,88.52,94Z"/><path class="cls-8" d="M98.17,78.58a9.71,9.71,0,0,1-5.92,8.93h0a9.73,9.73,0,0,1-7.54,0h0a9.69,9.69,0,1,1,13.47-8.93Z"/><path class="cls-5" d="M88.48,89a10.43,10.43,0,0,1-3.91-.76h0l-.14-.06a10.39,10.39,0,1,1,8.1,0l-.14.06A10.47,10.47,0,0,1,88.48,89ZM84.9,86.83l.08,0a9.1,9.1,0,0,0,7,0l.12-.05a9,9,0,1,0-7.2,0Zm7.35.68h0Z"/><path class="cls-8" d="M69.47,78.58a9.71,9.71,0,0,1-5.92,8.93h0a9.76,9.76,0,0,1-7.55,0h0a9.69,9.69,0,1,1,13.47-8.93Z"/><path class="cls-5" d="M59.78,89a10.39,10.39,0,0,1-3.91-.76h0l-.13-.06a10.39,10.39,0,1,1,8.09,0l-.14.06A10.38,10.38,0,0,1,59.78,89Zm-3.59-2.14.08,0a9.13,9.13,0,0,0,7,0l.11-.05a9,9,0,1,0-7.2,0Zm7.36.68Z"/><path class="cls-5" d="M63.59,86.94a3.48,3.48,0,0,1,0,.57h0a9.76,9.76,0,0,1-7.55,0h0a3.48,3.48,0,0,1,0-.57,3.82,3.82,0,0,1,7.63,0Z"/><path class="cls-5" d="M92.29,86.94a3.48,3.48,0,0,1,0,.57h0a9.73,9.73,0,0,1-7.54,0h0a5.1,5.1,0,0,1,0-.57,3.82,3.82,0,0,1,7.63,0Z"/><path class="cls-5" d="M78.79,79.7a.7.7,0,0,1-.7-.7,4,4,0,0,0-7.93,0,.7.7,0,1,1-1.39,0,5.36,5.36,0,0,1,10.72,0A.7.7,0,0,1,78.79,79.7Z"/><path class="cls-5" d="M106.88,75.6H98a.7.7,0,1,1,0-1.4h8.86a.7.7,0,0,1,0,1.4Z"/><path class="cls-5" d="M50.24,75.6H41.37a.7.7,0,1,1,0-1.4h8.87a.7.7,0,0,1,0,1.4Z"/><g class="cls-9"><circle class="cls-7" cx="59.87" cy="85.85" r="0.84"/><circle class="cls-7" cx="88.64" cy="85.85" r="0.84"/></g><path class="cls-5" d="M103.2,43.8V59.25H45.31V26.45H85.86a17.3,17.3,0,0,1,3.62.39h0A17.34,17.34,0,0,1,103.2,43.8Z"/><path class="cls-5" d="M80.44,115.88v6a26.64,26.64,0,0,1-2.85.15H70.9c-.85,0-1.7,0-2.52-.12v-6.05a.83.83,0,0,1,.83-.83h10.4A.83.83,0,0,1,80.44,115.88Z"/><rect class="cls-10" x="45.31" y="26.45" width="5.02" height="32.79"/><path class="cls-11" d="M103.2,43.8V59.25h-6V40.43c0-8.92-7.5-13.47-7.7-13.59A17.34,17.34,0,0,1,103.2,43.8Z"/><path class="cls-10" d="M59.65,119.44a25.09,25.09,0,0,1-6.77-4.85,25.38,25.38,0,0,1-7.47-18V60.82q0-.89.06-1.77l7.47.2V96S52.05,109.39,59.65,119.44Z"/><path class="cls-12" d="M88.91,119.44a25.49,25.49,0,0,0,14.25-22.87V60.82q0-.89-.06-1.77l-7.48.2V96S96.52,109.39,88.91,119.44Z"/><path class="cls-10" d="M45.31,57.3V77.76a12,12,0,0,1,0-20.46Z"/><path class="cls-11" d="M103.2,57.3V77.76a12,12,0,0,0,0-20.46Z"/><path class="cls-13" d="M208.49,98.79l-12-21h-3.06v21H180V43.31h22.92a24.85,24.85,0,0,1,11.14,2.27,15.79,15.79,0,0,1,6.83,6.24,18,18,0,0,1,2.27,9.07,16.13,16.13,0,0,1-3.33,10.28A17.14,17.14,0,0,1,210.14,77l13.18,21.81ZM193.42,68.66h8.32q4,0,5.88-1.77a6.8,6.8,0,0,0,1.89-5.22,6.94,6.94,0,0,0-1.92-5.18q-1.93-1.87-5.85-1.88h-8.32Z"/><path class="cls-13" d="M243.33,43.31V98.79H229.91V43.31Z"/><path class="cls-13" d="M292.46,43.31V54H277.39V98.79h-13.5V54H249V43.31Z"/><path class="cls-13" d="M311.53,43.31V98.79H298.11V43.31Z"/><path class="cls-13" d="M346.92,70.46l22.37,28.33H353L334.21,73.92V98.79H320.79V43.31h13.42V67.72l19-24.41h16.09Z"/><path class="cls-13" d="M428.26,91.26a15.82,15.82,0,0,1-6.59,5.89,23.31,23.31,0,0,1-10.56,2.19q-9.33,0-15.38-4.55a16.46,16.46,0,0,1-6.59-12.71h14.28A7.54,7.54,0,0,0,405.66,87a6.84,6.84,0,0,0,4.9,1.81,5.65,5.65,0,0,0,4.08-1.42,4.91,4.91,0,0,0,1.5-3.76,4.83,4.83,0,0,0-1.38-3.53,10.54,10.54,0,0,0-3.41-2.32c-1.36-.6-3.25-1.32-5.65-2.16a68.36,68.36,0,0,1-8.6-3.49,15.76,15.76,0,0,1-5.72-5,14.53,14.53,0,0,1-2.4-8.67,14.65,14.65,0,0,1,2.51-8.56,16,16,0,0,1,6.95-5.53,25.33,25.33,0,0,1,10.16-1.92q9.25,0,14.72,4.39a16.79,16.79,0,0,1,6.16,12.09H415a7.46,7.46,0,0,0-2-4.36A5.92,5.92,0,0,0,408.6,53a5.57,5.57,0,0,0-3.8,1.26,4.6,4.6,0,0,0-1.46,3.69,4.69,4.69,0,0,0,1.3,3.33,9.84,9.84,0,0,0,3.26,2.24c1.3.57,3.19,1.31,5.65,2.2a61.76,61.76,0,0,1,8.71,3.57,16.55,16.55,0,0,1,5.8,5.14,14.63,14.63,0,0,1,2.44,8.79A15.3,15.3,0,0,1,428.26,91.26Z"/><path class="cls-13" d="M451.37,43.31V98.79H438V43.31Z"/><path class="cls-13" d="M509.92,98.79H496.5L474.05,64.73V98.79H460.63V43.31h13.42L496.5,77.68V43.31h13.42Z"/><path class="cls-13" d="M567.13,43.31V98.79h-13.5V75.64h-21V98.79H519.18V43.31h13.41v21.5h21V43.31Z"/><path class="cls-13" d="M610.76,88.67H590l-3.45,10.12H572.38L592.71,43.7h15.46l20.32,55.09H614.21Zm-3.45-10.2L600.4,58.06l-7,20.41Z"/></g></g></g></svg>